<svg xmlns="http://www.w3.org/2000/svg" width="3000" height="3000" viewBox="0 0 3000 3000" version="1.1"><path d="" stroke="none" fill="#080404" fill-rule="evenodd"/><path d="M 1773.500 368.909 C 1750.992 381.919, 1672 529.249, 1672 558.220 C 1672 574.485, 1692.922 567.629, 1697.971 549.709 C 1711.091 503.146, 1730.501 463.502, 1762.457 418 C 1788.465 380.969, 1791.945 373.854, 1786.646 368.555 C 1783.302 365.211, 1779.732 365.307, 1773.500 368.909 M 1480.656 404.918 C 1445.991 416.329, 1400.825 484.202, 1403.206 521.305 C 1405.576 558.231, 1456.619 557.875, 1497.671 520.646 C 1513.567 506.231, 1507.536 497.617, 1489.594 509.109 C 1466.750 523.742, 1458.450 527.209, 1445 527.740 C 1418.221 528.796, 1417.279 506.765, 1442.370 466.280 C 1467.548 425.654, 1484.821 415.489, 1488.616 439.064 C 1491.366 456.146, 1497.462 459.567, 1504.966 448.238 C 1519.243 426.684, 1502.916 397.591, 1480.656 404.918 M 1596.500 426.409 C 1542.175 438.940, 1519.284 522.075, 1564.377 543.075 C 1604.217 561.630, 1650.921 527.098, 1655.584 475.638 C 1658.638 441.931, 1630.575 418.549, 1596.500 426.409 M 1600 436.486 C 1567.187 447.238, 1549.772 527.124, 1578.185 536.561 C 1602.813 544.741, 1625.749 517.751, 1632.624 472.500 C 1636.843 444.726, 1622.654 429.062, 1600 436.486 M 1229.034 452.752 C 1224.219 455.181, 1222.322 459.025, 1219.465 472.146 C 1209.563 517.612, 1203.472 534.861, 1190.116 555.252 C 1163.819 595.398, 1150.499 571.440, 1161.933 504.560 C 1166.974 475.071, 1165.596 467.992, 1154.816 468.004 C 1145.444 468.014, 1142.202 473.883, 1142.115 491 C 1142.080 497.875, 1141.365 512.500, 1140.527 523.500 C 1136.862 571.574, 1141.400 590.764, 1158.136 597.963 C 1175.530 605.446, 1199.104 580.698, 1217.055 536.110 C 1220.835 526.720, 1220.835 526.720, 1221.519 531.610 C 1226.828 569.590, 1238.954 585.729, 1253.297 573.907 C 1261.179 567.410, 1261.513 562.825, 1254.457 557.970 C 1242.246 549.569, 1235.991 518.550, 1239.139 482 C 1241.654 452.792, 1239.769 447.336, 1229.034 452.752 M 1814.500 472.698 C 1762.761 479.560, 1730.631 554.463, 1768.298 580.405 C 1810.640 609.567, 1874.896 568.550, 1872.845 513.669 C 1871.865 487.465, 1845.063 468.644, 1814.500 472.698 M 1818.500 484.340 C 1792.151 492.962, 1763.443 549.094, 1775.175 569.050 C 1791.802 597.331, 1833.661 570.929, 1850.129 521.773 C 1858.936 495.488, 1842.798 476.389, 1818.500 484.340 M 1949.969 514.347 C 1939.386 517.227, 1900.527 562.459, 1878.512 597.525 C 1860.194 626.703, 1875.720 637.442, 1900.500 612.731 C 1940.366 572.977, 2006.044 548.215, 2015.416 569.406 C 2022.338 585.058, 2042.057 577.374, 2039.718 559.937 C 2036.369 534.965, 1995.506 535.712, 1946.087 561.649 C 1937.161 566.333, 1931.510 569.725, 1919.250 577.756 C 1909.497 584.145, 1936.207 553.777, 1958.842 532.742 C 1971.326 521.140, 1965.951 509.997, 1949.969 514.347 M 1045 521.632 C 1005.361 529.179, 971.512 580.288, 998.645 591.625 C 1013.041 597.640, 1023.402 577.653, 1011.888 566.078 C 1003.407 557.553, 1007.694 549.200, 1024.899 540.729 C 1040.961 532.822, 1049.689 536.233, 1055.175 552.562 C 1059.978 566.856, 1059.982 566.800, 1053.777 571 C 1022.731 592.011, 1003.062 617.609, 1003.012 637.068 C 1002.912 675.609, 1053.595 669.063, 1073.585 627.953 C 1077.387 620.133, 1077.387 620.133, 1080.878 623.198 C 1092.388 633.304, 1104.433 631.609, 1115.412 618.339 C 1123.578 608.471, 1119.380 599.285, 1110.629 607.873 C 1103.972 614.407, 1097.722 613.191, 1094.588 604.752 C 1093.719 602.413, 1088.265 584.796, 1082.467 565.602 C 1069.065 521.234, 1065.997 517.634, 1045 521.632 M 937.316 563.326 C 916.800 570.890, 905.479 604.182, 905.557 656.728 C 905.597 683.957, 897.443 670.017, 888.425 627.440 C 884.353 608.214, 881.191 604.264, 873.190 608.402 C 859.685 615.385, 867.730 648.893, 898.001 711.742 C 916.441 750.026, 939.012 750.839, 927.688 712.811 C 912.165 660.686, 922.933 587.117, 945.746 589.423 C 955.481 590.408, 961 586.538, 961 578.728 C 961 567.384, 948.449 559.222, 937.316 563.326 M 1052.967 583.377 C 1028.158 602.531, 1019.767 619.889, 1027.330 636.409 C 1034.366 651.779, 1051.655 647.723, 1063.807 627.851 C 1076.663 606.827, 1068.100 571.693, 1052.967 583.377 M 2057.552 596.658 C 2039.032 602.341, 2033.683 619.373, 2048.477 625.555 C 2057.964 629.519, 2066.704 624.686, 2068.469 614.500 C 2070.045 605.404, 2077.718 603.377, 2089.426 608.965 C 2106.853 617.282, 2113.995 630.848, 2106.112 640.660 C 2093.997 655.742, 2092.212 656.538, 2081.402 651.689 C 2043.745 634.795, 2014.791 632.366, 1998.550 644.738 C 1971.944 665.005, 2001.250 700.432, 2043.250 698.775 C 2049.162 698.541, 2054 698.435, 2054 698.539 C 2054 698.642, 2053.536 701.151, 2052.969 704.114 C 2050.044 719.402, 2061.021 730.453, 2079.167 730.489 C 2085.733 730.502, 2085.543 730.626, 2086.287 725.801 C 2086.858 722.101, 2086.858 722.101, 2082.417 721.435 C 2076.023 720.476, 2073 717.776, 2073 713.022 C 2073 708.234, 2073.113 708.098, 2103.646 675.924 C 2131.057 647.040, 2131.458 646.515, 2131.357 639.562 C 2131.008 615.385, 2084.544 588.375, 2057.552 596.658 M 2033.344 650.981 C 2008.123 656.337, 2003.966 681.072, 2027.106 688.101 C 2055.980 696.871, 2098.717 668.533, 2072.254 658.163 C 2053.514 650.819, 2043.131 648.903, 2033.344 650.981 M 799.105 681.519 C 757.972 693.065, 745.404 746.800, 774.354 787.344 C 820.251 851.620, 895.006 781.232, 854.373 712 C 840.394 688.183, 818.460 676.086, 799.105 681.519 M 2208.614 683.716 C 2207.576 683.982, 2204.354 685.718, 2201.452 687.574 C 2198.550 689.430, 2184.324 696.755, 2169.838 703.853 C 2080.918 747.418, 2095.142 790.861, 2193.924 777.418 C 2199.657 776.638, 2204.524 776, 2204.740 776 C 2204.955 776, 2201.839 778.627, 2197.816 781.838 C 2171.159 803.113, 2164.216 820.198, 2179.421 827.104 C 2189.181 831.536, 2193.662 829.467, 2195.014 819.903 C 2197.172 804.636, 2217.667 786.936, 2253 769.822 C 2274.976 759.179, 2274.236 759.615, 2276.381 756.021 C 2283.623 743.879, 2269.627 741.541, 2242.500 750.362 C 2210.107 760.895, 2197.171 763.359, 2174 763.410 C 2115.374 763.541, 2125.822 739.714, 2195.867 713.546 C 2219.468 704.729, 2225 700.929, 2225 693.530 C 2225 690.104, 2220.470 685.225, 2216.186 684.035 C 2212.316 682.960, 2211.668 682.933, 2208.614 683.716 M 657.750 688.080 C 645.824 695.026, 654.594 717.460, 696.970 788.406 C 745.336 869.379, 780 903.909, 780 871.115 C 780 863.557, 779.031 862.005, 765.391 847.732 C 740.713 821.908, 714.863 784.418, 699.037 751.500 C 668.718 688.438, 665.534 683.547, 657.750 688.080 M 790.485 697.100 C 768.276 708.804, 768.823 737.081, 791.908 770.787 C 810.862 798.460, 830.530 805.007, 843.920 788.101 C 866.031 760.184, 819.890 681.604, 790.485 697.100 M 1535.941 733.111 C 1528.079 747.801, 1534.169 890.521, 1544.790 940.500 C 1555.922 992.885, 1541.724 1045.552, 1504.790 1088.879 C 1501.331 1092.938, 1498.096 1096.806, 1497.602 1097.475 C 1497.027 1098.255, 1500.524 1112.058, 1507.332 1135.879 C 1518.395 1174.591, 1525.500 1206.302, 1530.440 1239 C 1534.929 1268.719, 1534.699 1266.936, 1540.041 1313.500 C 1541.177 1323.400, 1543.225 1340.725, 1544.592 1352 C 1549.358 1391.313, 1549.906 1402.367, 1549.924 1459.500 C 1549.936 1499.851, 1549.569 1517.165, 1548.472 1528 C 1546.881 1543.699, 1544.703 1572.450, 1543.049 1599.560 C 1541.160 1630.541, 1541.301 1629.977, 1537.057 1623.586 C 1512.639 1586.816, 1457.692 1551.408, 1388 1527.535 C 1359.791 1517.872, 1311.574 1505.015, 1309.899 1506.710 C 1308.330 1508.299, 1295.937 1534.119, 1291.996 1544.010 C 1280.576 1572.674, 1276.032 1604.688, 1280.500 1625 C 1283.160 1637.091, 1283.633 1636.387, 1270.750 1639.481 C 1183.352 1660.469, 1107.076 1702.543, 1109.369 1728.500 C 1112.542 1764.421, 1151.963 1814.417, 1202.296 1846.356 C 1208.093 1850.035, 1208.093 1850.035, 1203.548 1856.267 C 1186.563 1879.560, 1162.526 1919.980, 1154.645 1938.500 C 1125.525 2006.937, 1115.754 2046.514, 1112.551 2109 C 1111.888 2121.943, 1111.329 2121.171, 1124 2124.837 C 1161.568 2135.708, 1198.431 2142.645, 1247.500 2148.079 C 1295.314 2153.373, 1366.021 2148.940, 1408.500 2137.984 C 1468.790 2122.435, 1506.975 2100.852, 1546.151 2060.181 C 1615.047 1988.659, 1636.024 1901.981, 1604.522 1819 C 1599.776 1806.500, 1599.776 1806.500, 1600.937 1796 C 1602.958 1777.719, 1603.936 1738.439, 1603.968 1674.292 C 1603.995 1622.315, 1604.323 1607.759, 1605.961 1585.792 C 1610.143 1529.736, 1611.405 1506.302, 1613.006 1455 C 1613.564 1437.125, 1614.256 1421.065, 1614.544 1419.310 C 1614.832 1417.556, 1615.082 1400.906, 1615.099 1382.310 C 1615.128 1350.782, 1615.443 1342.806, 1618.011 1308.500 C 1618.547 1301.350, 1619.660 1286.275, 1620.484 1275 C 1621.309 1263.725, 1623.114 1239.200, 1624.495 1220.500 C 1625.876 1201.800, 1627.534 1178.963, 1628.181 1169.750 C 1628.827 1160.537, 1629.648 1153, 1630.007 1153 C 1630.365 1153, 1640.522 1159.130, 1652.579 1166.622 C 1686.368 1187.620, 1729.042 1210.877, 1745 1216.993 C 1785.094 1232.357, 1796.554 1244.998, 1820.256 1300 C 1833.005 1329.586, 1836.572 1316.780, 1789.683 1409.741 C 1781.444 1426.075, 1779.500 1426.736, 1755.214 1421.451 C 1743.146 1418.824, 1726.751 1414.858, 1726.173 1414.424 C 1725.787 1414.135, 1728.653 1403.680, 1734.161 1385.274 C 1740.506 1364.073, 1737.893 1320.640, 1731.449 1340.196 C 1726.767 1354.404, 1706.878 1399.325, 1693.079 1426.857 C 1688.570 1435.854, 1685.020 1443.320, 1685.190 1443.448 C 1696.899 1452.299, 1759.257 1483, 1765.527 1483 C 1766.433 1483, 1772.423 1477.889, 1778.837 1471.642 C 1796.218 1454.715, 1828.908 1425.577, 1850.799 1407.500 C 1862.909 1397.500, 1862.909 1397.500, 1864.990 1390.500 C 1871.024 1370.210, 1880.273 1345.670, 1887.385 1331.085 C 1893.081 1319.402, 1889.250 1306.792, 1866.414 1262.039 C 1859.242 1247.983, 1856.991 1242.272, 1851.425 1224 C 1845.492 1204.524, 1833.483 1168.112, 1832.783 1167.476 C 1832.628 1167.334, 1828.225 1165.224, 1823 1162.787 C 1788.527 1146.711, 1758.261 1121.329, 1715.637 1072.750 C 1708.036 1064.088, 1701.453 1057, 1701.008 1057 C 1698.448 1057, 1657.881 1010.991, 1644.922 993.390 C 1640.917 987.950, 1635.533 981.025, 1632.957 978 C 1628.487 972.751, 1616.360 954.063, 1607.001 938 C 1604.597 933.875, 1599.863 927.125, 1596.481 923 C 1575.858 897.850, 1563.421 869.755, 1552.009 822.542 C 1543.270 786.383, 1540.385 769.609, 1539.041 747.142 C 1538.055 730.671, 1537.819 729.602, 1535.941 733.111 M 646.254 846.405 C 616.427 856.111, 602.886 896.736, 618.475 929.744 C 645.071 986.061, 706.176 988.919, 721.058 934.542 C 733.258 889.962, 685.461 833.647, 646.254 846.405 M 643.500 861.907 C 612.954 869.498, 621.178 912.658, 659 943.244 C 687.023 965.906, 711.594 958.099, 709.800 927.103 C 708.234 900.052, 664.209 856.761, 643.500 861.907 M 2340 916.945 C 2286.496 922.596, 2269.643 951.663, 2301.402 983.516 C 2320.256 1002.425, 2354.660 1017.829, 2363.777 1011.443 C 2368.529 1008.115, 2364.163 1003.604, 2348.693 995.856 C 2290.144 966.532, 2296.624 936.500, 2361.500 936.500 C 2416.719 936.500, 2434.126 946.925, 2409.656 965.340 C 2394.540 976.715, 2410.570 986.839, 2428.950 977.525 C 2478.855 952.237, 2415.351 908.987, 2340 916.945 M 550 955.118 C 507.336 967.792, 572.091 1107.303, 617.408 1100.345 C 643.510 1096.337, 659.604 1036.868, 643.183 1005.107 C 635.863 990.950, 632.515 997.076, 632.430 1024.788 C 632.222 1091.977, 601.065 1094.146, 568.600 1029.231 C 548.241 988.523, 549.453 972.835, 572.249 981.963 C 587.440 988.046, 593.350 983.117, 586.075 970.433 C 579.641 959.216, 561.759 951.625, 550 955.118 M 2411 1029.439 C 2366.614 1038.843, 2349.262 1071.357, 2370.865 1104.646 C 2389.748 1133.744, 2430.605 1142.263, 2466.500 1124.588 C 2525.936 1095.322, 2479.093 1015.014, 2411 1029.439 M 2422.776 1050.980 C 2378.916 1060.228, 2361.445 1082.953, 2382.630 1103.198 C 2403.369 1123.016, 2473.852 1109.029, 2480.947 1083.689 C 2487.742 1059.422, 2459.105 1043.320, 2422.776 1050.980 M 2490 1167.663 C 2418.961 1171.446, 2392.262 1178.268, 2398.374 1191.073 C 2402.809 1200.366, 2411.457 1201.820, 2431.596 1196.659 C 2469.892 1186.844, 2519.147 1184.101, 2570.500 1188.925 C 2618.729 1193.455, 2634.403 1189.548, 2620.522 1176.456 C 2611.845 1168.272, 2552.997 1164.308, 2490 1167.663 M 458.382 1203.403 C 450.214 1209.286, 455.038 1217.174, 480.691 1239.882 C 502.847 1259.495, 519.089 1280.818, 528.564 1302.734 C 544.036 1338.521, 516.081 1334.401, 466.500 1293.587 C 446.096 1276.791, 439.586 1274.011, 433.306 1279.413 C 426.785 1285.022, 430.085 1295.988, 439.770 1300.894 C 442.922 1302.490, 456.525 1311.170, 470 1320.182 C 552.752 1375.526, 584.491 1340.984, 522.541 1263 C 515.189 1253.745, 515.180 1253.699, 521.184 1256.125 C 557.628 1270.848, 578.564 1266.827, 571.990 1246.369 C 569.481 1238.560, 566.050 1237.321, 557.460 1241.121 C 543.408 1247.336, 510.437 1233.865, 471.989 1206.198 C 466.575 1202.302, 461.389 1201.237, 458.382 1203.403 M 2474.660 1234.979 C 2441.397 1241.031, 2425.574 1262.465, 2432.983 1291.432 C 2451.305 1363.071, 2574.530 1356.406, 2558.563 1284.639 C 2551.039 1250.818, 2512.611 1228.074, 2474.660 1234.979 M 2474.660 1259.048 C 2447.923 1263.535, 2437.183 1276.050, 2444.131 1294.619 C 2455.721 1325.596, 2542.382 1327.423, 2548.943 1296.828 C 2554.777 1269.629, 2519.255 1251.563, 2474.660 1259.048 M 2456 1378.858 C 2448.412 1380.532, 2445.388 1383.875, 2446.549 1389.309 C 2448.364 1397.803, 2452.114 1400.473, 2467.815 1404.453 C 2521.882 1418.158, 2579.066 1464.555, 2564.490 1482.891 C 2554.719 1495.183, 2567.024 1508.008, 2581.750 1500.879 C 2610.484 1486.969, 2580.506 1442.293, 2520.514 1409.618 C 2512.821 1405.428, 2507.196 1402, 2508.014 1402 C 2516.081 1402.001, 2544.530 1408.162, 2561 1413.474 C 2580.583 1419.791, 2587.182 1418.046, 2584.545 1407.250 C 2582.246 1397.833, 2575.824 1393.886, 2556.283 1389.876 C 2515.695 1381.549, 2467.705 1376.276, 2456 1378.858 M 530.750 1382.574 C 527.559 1384.303, 527.577 1384.201, 529.500 1389.723 C 534.543 1404.197, 529.590 1404.525, 480.350 1392.978 C 433.347 1381.955, 432.120 1382.066, 424.106 1398.104 C 407.890 1430.556, 424.608 1479.940, 451.827 1479.990 C 461.912 1480.009, 466.874 1468.866, 461.040 1459.299 C 457.249 1453.080, 453.827 1452.330, 439.689 1454.617 C 426.126 1456.811, 423.491 1423.663, 436.217 1410.937 C 440.184 1406.969, 448.487 1407.433, 466.215 1412.612 C 468.074 1413.155, 468.234 1413.878, 470.054 1430 C 474.948 1473.357, 492.666 1501.168, 515.562 1501.430 C 540.656 1501.718, 548.154 1461.452, 528.479 1432.058 C 523.282 1424.294, 523.282 1424.294, 528.276 1422.498 C 541.081 1417.893, 545.747 1407.613, 541.509 1393.343 C 538.610 1383.581, 535.197 1380.165, 530.750 1382.574 M 478.423 1421.828 C 482.066 1457.377, 494.575 1476.012, 514.788 1475.996 C 532.877 1475.982, 533.830 1449.631, 516.415 1431.013 C 504.475 1418.248, 477.386 1411.699, 478.423 1421.828 M 415.500 1503.890 C 384.918 1518.004, 415.812 1563.972, 478 1596.884 C 490.877 1603.699, 490.796 1603.778, 473.733 1601.030 C 459.607 1598.756, 450.096 1596.424, 434.883 1591.506 C 412.365 1584.227, 402.696 1592.542, 417.021 1606.867 C 424.897 1614.743, 489.273 1626.183, 527 1626.412 C 558.954 1626.606, 559.751 1608.953, 528.168 1600.545 C 475.905 1586.631, 416.821 1540.592, 430.351 1524.327 C 441.068 1511.444, 430.535 1496.951, 415.500 1503.890 M 2472.885 1504.380 C 2452.057 1511.823, 2448.986 1547.752, 2466.948 1573.826 C 2471.728 1580.765, 2471.728 1580.765, 2468.114 1581.849 C 2451.468 1586.841, 2445.972 1607.865, 2457.841 1621.149 C 2460.340 1623.944, 2467 1623.546, 2467 1620.600 C 2467 1620.408, 2466.325 1618.338, 2465.500 1616 C 2463.444 1610.173, 2463.571 1609.275, 2466.923 1605.923 C 2470.976 1601.870, 2470.588 1601.819, 2514.384 1612.105 C 2561.780 1623.235, 2562.789 1623.140, 2570.753 1606.780 C 2588.582 1570.157, 2560.877 1507.217, 2535.659 1527.054 C 2524.221 1536.051, 2536.145 1556.388, 2549.992 1551.503 C 2561.861 1547.315, 2568.072 1555.775, 2566.745 1574.320 C 2565.384 1593.341, 2557.791 1599.395, 2540.341 1595.372 C 2525.660 1591.987, 2526.421 1592.642, 2525.661 1582.750 C 2523.624 1556.275, 2516.118 1531.787, 2505.881 1518.227 C 2497.593 1507.248, 2482.539 1500.930, 2472.885 1504.380 M 2473.270 1530.483 C 2458.127 1537.065, 2469.052 1573.525, 2488.832 1582.419 C 2492.618 1584.122, 2516.206 1590, 2516.879 1589.408 C 2517.769 1588.627, 2513.581 1563.848, 2511.371 1556.818 C 2504.946 1536.380, 2487.478 1524.306, 2473.270 1530.483 M 1370.185 1590.941 C 1363.167 1592.704, 1360.292 1597.936, 1362.638 1604.675 C 1363.371 1606.779, 1363.977 1611.108, 1363.985 1614.295 C 1364.011 1624.169, 1366.907 1625.673, 1385.319 1625.378 C 1393.374 1625.249, 1396.217 1618.192, 1394.537 1602.497 C 1393.333 1591.261, 1384.880 1587.250, 1370.185 1590.941 M 1408.800 1646.046 C 1398.273 1656.573, 1423.928 1681.755, 1436.711 1673.443 C 1439.667 1671.521, 1443.100 1658.257, 1442.197 1652.242 C 1440.879 1643.450, 1416.009 1638.837, 1408.800 1646.046 M 2454.168 1658.603 C 2434.753 1668.278, 2441.244 1699.036, 2471.056 1738.636 C 2475.419 1744.431, 2479.200 1749.515, 2479.459 1749.934 C 2479.718 1750.353, 2475.816 1749.150, 2470.787 1747.261 C 2439.250 1735.415, 2421.932 1737.801, 2423.384 1753.791 C 2424.399 1764.973, 2428.272 1767.638, 2438.147 1763.945 C 2453.646 1758.149, 2486.404 1771.201, 2521.815 1797.283 C 2531.647 1804.524, 2538.853 1804.486, 2540.313 1797.185 C 2541.574 1790.881, 2539.546 1787.646, 2527.214 1776.291 C 2486.096 1738.433, 2466.504 1711.353, 2463.422 1688.124 C 2460.876 1668.930, 2489.797 1678.296, 2525.606 1708.261 C 2550.389 1729, 2556.459 1731.695, 2563.200 1724.954 C 2569.292 1718.862, 2565.971 1709.033, 2556.144 1704.072 C 2552.945 1702.458, 2539.207 1693.680, 2525.614 1684.566 C 2484.866 1657.245, 2468.690 1651.367, 2454.168 1658.603 M 486.500 1663.677 C 448.899 1666.883, 429.769 1689.376, 437.495 1721.294 C 454.485 1791.478, 578.207 1785.789, 563.501 1715.500 C 556.668 1682.845, 523.500 1660.522, 486.500 1663.677 M 1463.649 1687.005 C 1459.468 1691.975, 1458.874 1706.297, 1462.455 1715.816 C 1463.217 1717.842, 1464.110 1721.126, 1464.440 1723.113 C 1466.413 1735.013, 1485.142 1735.142, 1488.455 1723.279 C 1489.343 1720.101, 1490.773 1715.864, 1491.634 1713.865 C 1495.545 1704.786, 1491.135 1693.191, 1482.932 1690.982 C 1480.869 1690.426, 1477.743 1688.628, 1475.985 1686.986 C 1471.616 1682.905, 1467.093 1682.912, 1463.649 1687.005 M 478.500 1688.055 C 450.593 1692.332, 440.047 1706.435, 449.857 1726.360 C 466.205 1759.569, 556.824 1753.084, 553.727 1718.928 C 551.544 1694.847, 519.631 1681.751, 478.500 1688.055 M 1412.500 1704.884 C 1406.642 1707.461, 1404.358 1718.318, 1407.894 1726.776 C 1409.096 1729.650, 1409.064 1730.272, 1407.632 1731.854 C 1400.317 1739.937, 1410.818 1747.785, 1422.713 1743.124 C 1425.346 1742.093, 1429.075 1740.925, 1431 1740.530 C 1442.092 1738.253, 1448.095 1727.713, 1443.630 1718.350 C 1442.733 1716.470, 1442 1714.126, 1442 1713.140 C 1442 1709.818, 1437.335 1706.652, 1431.222 1705.826 C 1419.882 1704.292, 1414.465 1704.020, 1412.500 1704.884 M 1257.692 1718.972 C 1251.387 1721.436, 1246.722 1725.076, 1243.910 1729.729 C 1242.656 1731.803, 1240.589 1734.772, 1239.315 1736.327 C 1233.188 1743.807, 1238.012 1750.164, 1250.662 1751.280 C 1273.669 1753.310, 1271.806 1753.393, 1281.500 1749.906 C 1303.433 1742.015, 1304.135 1729.782, 1283.267 1719.136 C 1277.701 1716.297, 1264.752 1716.213, 1257.692 1718.972 M 1185.844 1737.836 C 1173.812 1743.503, 1171.458 1751.797, 1180.386 1757.066 C 1182.266 1758.174, 1184.079 1760.180, 1184.416 1761.523 C 1185.445 1765.622, 1189.703 1767.004, 1201.200 1766.968 C 1217.410 1766.918, 1219.860 1763.060, 1213.248 1748 C 1207.608 1735.154, 1198.617 1731.819, 1185.844 1737.836 M 1482.121 1746.972 C 1468.729 1751.530, 1465.997 1759.909, 1476.210 1765.098 C 1478.570 1766.297, 1481.491 1768.340, 1482.702 1769.639 C 1483.913 1770.938, 1485.713 1772.003, 1486.702 1772.007 C 1487.691 1772.010, 1489.850 1772.907, 1491.500 1774 C 1499.479 1779.284, 1505.013 1775.019, 1504.978 1763.615 C 1504.927 1747.223, 1497.426 1741.761, 1482.121 1746.972 M 1238.443 1760.296 C 1234.772 1763.453, 1234.529 1768.806, 1237.894 1772.388 C 1239.601 1774.204, 1239.999 1775.427, 1239.449 1777.160 C 1236.096 1787.724, 1246.817 1794.644, 1254.875 1787.116 C 1256.856 1785.267, 1259.534 1783.997, 1262.345 1783.575 C 1272.208 1782.096, 1277.483 1768.933, 1271.085 1761.766 C 1266.962 1757.148, 1243.339 1756.084, 1238.443 1760.296 M 566.319 1808 C 530.860 1817.783, 474.360 1821.264, 428 1816.521 C 401.255 1813.785, 379.076 1813.818, 375.328 1816.599 C 366.493 1823.155, 375.418 1832.759, 393.527 1836.182 C 403.234 1838.017, 508.444 1838.039, 529 1836.210 C 588.513 1830.916, 606.864 1824.267, 596.905 1811.607 C 591.307 1804.490, 582.714 1803.477, 566.319 1808 M 1376 1846.564 C 1346.631 1854.210, 1336.261 1868.546, 1350.221 1882.199 C 1357.030 1888.858, 1357.734 1889.921, 1358.224 1894.284 C 1359.756 1907.916, 1373.116 1917.130, 1380.873 1909.904 C 1382.946 1907.973, 1383.259 1907.940, 1385.513 1909.416 C 1398.940 1918.214, 1409.104 1894.915, 1405.069 1864.589 C 1402.527 1845.493, 1395.899 1841.383, 1376 1846.564 M 1449.339 1849.935 C 1445.637 1852.192, 1445.497 1852.583, 1443.954 1864.964 C 1443.302 1870.194, 1441.930 1876.003, 1440.887 1877.949 C 1434.422 1890.012, 1448.625 1900.239, 1458.242 1890.445 C 1459.484 1889.180, 1461.107 1887.550, 1461.849 1886.823 C 1462.591 1886.095, 1464.435 1884.288, 1465.947 1882.807 C 1467.459 1881.326, 1469.856 1879.823, 1471.274 1879.467 C 1475.651 1878.369, 1477.465 1875.313, 1477.115 1869.628 C 1476.964 1867.169, 1461.685 1851.553, 1457.476 1849.555 C 1453.348 1847.597, 1453.159 1847.606, 1449.339 1849.935 M 1496.923 1867.923 C 1494.527 1870.319, 1494 1871.688, 1494 1875.515 C 1494 1878.596, 1493.351 1881.010, 1492.091 1882.611 C 1491.041 1883.946, 1489.873 1887.392, 1489.496 1890.269 C 1489.102 1893.266, 1487.355 1898.132, 1485.404 1901.662 C 1477.814 1915.403, 1484.792 1921.898, 1502.356 1917.441 C 1527.963 1910.943, 1534.029 1904.265, 1524.106 1893.500 C 1521.516 1890.690, 1517.788 1884.605, 1514.886 1878.452 C 1508.257 1864.400, 1503.333 1861.513, 1496.923 1867.923 M 1299.500 1874.351 C 1276.544 1883.863, 1271 1888.475, 1271 1898.063 C 1271 1899.613, 1270.550 1901.160, 1270 1901.500 C 1267.167 1903.251, 1271.229 1914.348, 1275.291 1915.953 C 1276.506 1916.432, 1282 1918.029, 1287.500 1919.501 C 1293 1920.973, 1301.226 1923.319, 1305.781 1924.716 C 1329.219 1931.902, 1336.669 1912.595, 1321.833 1883.118 C 1315.308 1870.153, 1312.393 1869.009, 1299.500 1874.351 M 559.500 1872.639 C 510.248 1880.437, 490.316 1912.390, 512.123 1948.589 C 532.545 1982.490, 590.318 1988.351, 621.591 1959.696 C 658.521 1925.856, 614.369 1863.952, 559.500 1872.639 M 566.834 1894.567 C 519.953 1903.050, 501.405 1927.582, 525.703 1948.970 C 549.327 1969.764, 623.102 1948.816, 622.978 1921.349 C 622.882 1900.173, 598.949 1888.756, 566.834 1894.567 M 2373.713 1906.384 C 2350.346 1912.854, 2336.099 1974.513, 2351.770 2001.346 C 2359.461 2014.515, 2362.487 2008.868, 2362.559 1981.214 C 2362.734 1913.844, 2393.086 1911.590, 2426.038 1976.500 C 2438.750 2001.540, 2443.391 2020.609, 2438.068 2025.932 C 2435.500 2028.500, 2433.208 2028.235, 2423.074 2024.203 C 2402.599 2016.057, 2398.852 2032.586, 2418.254 2045.468 C 2444.736 2063.051, 2463.728 2044.844, 2456.540 2008.763 C 2444.967 1950.672, 2402.655 1898.371, 2373.713 1906.384 M 1420.576 1916.333 C 1419.159 1917.750, 1418 1919.622, 1418 1920.494 C 1418 1921.366, 1417.100 1923.844, 1416 1926 C 1414.900 1928.156, 1414 1931.100, 1414 1932.541 C 1414 1935.097, 1408.094 1948.005, 1405.554 1951 C 1394.896 1963.569, 1423.781 1972.375, 1439.850 1961.456 C 1442.926 1959.366, 1444.629 1959, 1451.278 1959 C 1474.036 1959, 1466.092 1935.246, 1437.609 1918.127 C 1429.906 1913.497, 1424.031 1912.878, 1420.576 1916.333 M 1243.500 1931.175 C 1242.400 1931.787, 1238.557 1935.036, 1234.960 1938.394 C 1231.363 1941.752, 1226.076 1946.557, 1223.210 1949.070 C 1215.011 1956.263, 1216.720 1964.153, 1226.778 1965.534 C 1233.474 1966.454, 1238.853 1967.903, 1243.654 1970.079 C 1248.059 1972.076, 1252.468 1971.465, 1256.079 1968.358 C 1256.947 1967.611, 1259.006 1967, 1260.654 1967 C 1271.442 1967, 1271.005 1939.504, 1260.102 1932.258 C 1256.327 1929.749, 1247.136 1929.150, 1243.500 1931.175 M 1323 1971.930 C 1320.525 1972.295, 1317.499 1973.236, 1316.275 1974.021 C 1314.519 1975.149, 1313.792 1975.192, 1312.825 1974.225 C 1310.877 1972.277, 1273.821 1972.524, 1269.980 1974.510 C 1256.630 1981.414, 1278.526 2035.693, 1293.382 2032.523 C 1295.097 2032.157, 1299.060 2031.760, 1302.188 2031.640 C 1309.081 2031.376, 1311.576 2029.470, 1312.546 2023.726 C 1313.084 2020.544, 1314.893 2017.770, 1320.654 2011.295 C 1337.745 1992.085, 1342.796 1978.918, 1335.328 1973.043 C 1332.662 1970.947, 1330.811 1970.779, 1323 1971.930 M 1512 1972.116 C 1510.075 1972.618, 1505.874 1972.770, 1502.665 1972.455 C 1491.798 1971.387, 1488.377 1977.280, 1489.595 1994.965 C 1490.388 2006.488, 1492.100 2010, 1496.923 2010 C 1498.451 2010, 1501.149 2010.505, 1502.918 2011.121 C 1512.556 2014.481, 1528 1996.682, 1528 1982.214 C 1528 1971.772, 1523.712 1969.066, 1512 1972.116 M 633.250 1994.220 C 627.160 1997.157, 631.041 2001.314, 648.303 2010.346 C 707.177 2041.148, 700.547 2069.542, 634.500 2069.464 C 586.577 2069.408, 564.943 2060.486, 580.128 2047.041 C 594.195 2034.585, 595.733 2031.780, 590.892 2027.405 C 574.771 2012.835, 539.932 2046.757, 553.632 2063.684 C 585.863 2103.506, 711.676 2095.398, 711.325 2053.520 C 711.104 2027.204, 654.307 1984.065, 633.250 1994.220 M 1388.174 2011.314 C 1385.063 2014.626, 1385.215 2020.914, 1388.500 2024.818 C 1391.873 2028.826, 1391.715 2032.825, 1388 2037.500 C 1384.258 2042.209, 1384.088 2046.251, 1387.500 2049.412 C 1388.875 2050.687, 1390 2052.500, 1390 2053.442 C 1390 2065.920, 1426.397 2062.719, 1440.028 2049.043 C 1459.051 2029.956, 1439.881 2009, 1403.396 2009 C 1391.051 2009, 1390.232 2009.125, 1388.174 2011.314 M 1227 2029.888 C 1211.361 2030.600, 1211.866 2030.383, 1201.815 2040.728 C 1187.824 2055.127, 1189.184 2057.777, 1216.655 2069.664 C 1232.098 2076.346, 1234.252 2076.264, 1242.740 2068.674 C 1244.892 2066.749, 1245.055 2066.740, 1246.949 2068.454 C 1259.835 2080.116, 1269.840 2057.215, 1259.304 2040.173 C 1253.127 2030.183, 1249.045 2028.883, 1227 2029.888 M 2311.233 2031.150 C 2278.723 2036.323, 2261.657 2082.568, 2279.317 2117.636 C 2307.164 2172.934, 2369.322 2173.195, 2382.034 2118.067 C 2391.625 2076.477, 2349.716 2025.028, 2311.233 2031.150 M 1337.424 2043.084 C 1336.191 2044.447, 1335.574 2046.536, 1335.642 2049.123 C 1335.736 2052.697, 1335.336 2053.361, 1331.508 2055.994 C 1326.498 2059.441, 1323.584 2064.827, 1324.491 2068.960 C 1324.990 2071.231, 1324.724 2071.953, 1323.212 2072.433 C 1321.180 2073.078, 1319 2076.929, 1319 2079.873 C 1319 2082.196, 1322.774 2085.579, 1326.250 2086.372 C 1327.763 2086.718, 1330.097 2087.272, 1331.437 2087.605 C 1333.652 2088.154, 1335.577 2087.517, 1341.500 2084.273 C 1342.600 2083.670, 1345.648 2082.421, 1348.273 2081.497 C 1358.974 2077.730, 1368.987 2068.897, 1368.996 2063.217 C 1369.018 2049.971, 1345.033 2034.676, 1337.424 2043.084 M 2299.500 2049.393 C 2273.038 2060.987, 2283.525 2101.110, 2320.878 2131.179 C 2346.954 2152.171, 2369.500 2144.632, 2369.500 2114.922 C 2369.500 2084.798, 2321.420 2039.789, 2299.500 2049.393 M 2221 2122.286 C 2217.989 2123.781, 2215.002 2129.373, 2215.007 2133.500 C 2215.017 2140.959, 2216.872 2143.945, 2229.842 2157.372 C 2256.138 2184.596, 2278.527 2217.468, 2297.699 2257 C 2324.937 2313.162, 2327.828 2318, 2334.140 2318 C 2347.199 2318, 2344.344 2298.789, 2326.372 2265.719 C 2277.572 2175.925, 2233.576 2116.038, 2221 2122.286 M 803.637 2178.108 C 802.736 2179.394, 801.996 2182.032, 801.990 2183.973 C 801.949 2198.989, 773.535 2222.906, 735.927 2239.581 C 720.874 2246.255, 717.992 2248.848, 719.399 2254.454 C 721.465 2262.687, 729.723 2262.712, 754.881 2254.563 C 803.259 2238.893, 849.725 2236.665, 859.845 2249.530 C 866.929 2258.537, 842.237 2276.401, 802.500 2291.017 C 774.536 2301.303, 766.430 2308.644, 774.029 2316.801 C 780 2323.210, 786.070 2323.320, 796.089 2317.199 C 799.713 2314.985, 814.113 2307.555, 828.089 2300.688 C 914.516 2258.222, 900.230 2213.714, 804.576 2227.433 C 798.568 2228.295, 793.253 2229, 792.767 2229 C 792.280 2229, 795.188 2226.340, 799.229 2223.089 C 824.933 2202.411, 832.328 2185.137, 818.325 2178.481 C 811.972 2175.462, 805.604 2175.300, 803.637 2178.108 M 2168.618 2193.112 C 2137.146 2200.501, 2119.585 2240.606, 2131.966 2276.820 C 2150.389 2330.709, 2204.316 2340.875, 2228.407 2295 C 2251.784 2250.485, 2212.123 2182.899, 2168.618 2193.112 M 2159.493 2209.351 C 2137.569 2219.561, 2137.993 2247.798, 2160.589 2282.284 C 2179.991 2311.896, 2199.344 2318.064, 2213.683 2299.206 C 2234.835 2271.390, 2189.104 2195.562, 2159.493 2209.351 M 2072.418 2264.969 C 2064.127 2268.323, 2062.770 2275.671, 2067.362 2292.348 C 2082.370 2346.853, 2071.495 2417.999, 2048.531 2415.540 C 2031.944 2413.764, 2027.384 2433.180, 2042.661 2440.536 C 2068.982 2453.210, 2089.392 2412.551, 2089.314 2347.601 C 2089.284 2323.084, 2089.076 2323.323, 2095.508 2340.500 C 2100.283 2353.250, 2104.476 2367.841, 2106.531 2378.855 C 2110.007 2397.487, 2115.716 2402.523, 2123.983 2394.250 C 2128.986 2389.243, 2130.559 2382.511, 2128.515 2374.843 C 2120.737 2345.649, 2096.380 2287.533, 2085.676 2272.628 C 2080.440 2265.336, 2076.762 2263.212, 2072.418 2264.969 M 913.364 2274.662 C 911.485 2275.055, 910 2278.319, 910 2282.054 C 910 2282.496, 912.471 2283.371, 915.492 2283.998 C 931.357 2287.292, 929.668 2290.784, 893.832 2328.770 C 861.993 2362.520, 861.897 2362.702, 868.747 2376.417 C 884.331 2407.617, 941.242 2421.296, 955.303 2397.222 C 962.479 2384.935, 946.185 2372.324, 934.179 2380.873 C 931.223 2382.977, 930.163 2385.045, 928.049 2392.828 C 923.593 2409.231, 887.076 2390.469, 887.010 2371.741 C 887.003 2369.701, 889.040 2366.709, 894.841 2360.241 C 906.132 2347.655, 903.944 2348.272, 916.923 2354.010 C 954.626 2370.676, 984.453 2372.576, 999.965 2359.298 C 1023.649 2339.025, 996.748 2306.564, 956.225 2306.516 C 942.951 2306.500, 942.951 2306.500, 943.605 2303.522 C 947.491 2285.831, 931.756 2270.815, 913.364 2274.662 M 943.230 2316.488 C 934.978 2318.807, 932.956 2320.221, 922.192 2331.198 C 910.488 2343.134, 909.965 2341.313, 927.010 2347.956 C 956.394 2359.407, 977.686 2355.481, 984.618 2337.331 C 990.333 2322.365, 965.971 2310.095, 943.230 2316.488 M 1958.112 2343.581 C 1941.932 2347.932, 1925.803 2362.740, 1919.008 2379.481 C 1916.767 2385.002, 1916.767 2385.002, 1913.199 2381.870 C 1900.895 2371.067, 1885.301 2374.265, 1876.541 2389.387 C 1871.964 2397.289, 1876.914 2405.143, 1881.984 2398.023 C 1892.364 2383.445, 1895.939 2388.303, 1910.605 2436.913 C 1924.090 2481.608, 1924.479 2482.265, 1938.317 2483.693 C 1979.017 2487.894, 2027.875 2423.958, 1992.655 2412.586 C 1980.047 2408.515, 1971.134 2430.147, 1981.866 2438.772 C 1994.614 2449.017, 1971.640 2470.528, 1951.187 2467.497 C 1940.051 2465.848, 1930.472 2440.482, 1938.845 2434.815 C 1955.508 2423.535, 1976.482 2403.421, 1982.989 2392.481 C 2000.643 2362.796, 1986.926 2335.831, 1958.112 2343.581 M 1946.055 2360.742 C 1926.253 2370.494, 1916.969 2413.302, 1931.504 2427.837 C 1933.949 2430.282, 1961.324 2404.115, 1965.742 2395.112 C 1975.672 2374.873, 1962.842 2352.475, 1946.055 2360.742 M 1108.209 2381.750 C 1105.958 2383.262, 1102.432 2386.469, 1100.373 2388.875 C 1067.519 2427.273, 990.906 2457.443, 981.996 2435.491 C 975.639 2419.827, 956.938 2426.638, 958.205 2444.156 C 960.328 2473.506, 1013.687 2468.196, 1068.925 2433.136 C 1085.266 2422.764, 1074.830 2437.660, 1047.699 2463.431 C 1029.653 2480.573, 1027.283 2485.509, 1035.148 2489.577 C 1044.295 2494.307, 1052.279 2490.908, 1064.887 2476.917 C 1096.333 2442.020, 1124.088 2403.413, 1126.994 2390.526 C 1129.229 2380.615, 1117.825 2375.287, 1108.209 2381.750 M 1823.953 2405.305 C 1808.479 2411.061, 1791.019 2434.552, 1777.419 2467.910 C 1773.583 2477.320, 1773.583 2477.320, 1772.300 2468.436 C 1766.896 2431.001, 1753.936 2417.132, 1738.730 2432.511 C 1733.354 2437.948, 1733.782 2441.478, 1740.380 2446.128 C 1753.837 2455.614, 1757.996 2482.767, 1754.451 2538 C 1753.744 2549.002, 1754.838 2551.376, 1760.814 2551.809 C 1769.713 2552.455, 1771.650 2548.465, 1778.924 2514.500 C 1788.841 2468.196, 1813.797 2424.720, 1828.362 2428.376 C 1837.511 2430.672, 1839.271 2461.711, 1832.423 2500 C 1827.544 2527.281, 1829.653 2536.768, 1840.369 2535.739 C 1849.400 2534.871, 1852 2530.707, 1852 2517.110 C 1852 2511.105, 1852.716 2497.711, 1853.591 2487.346 C 1858.745 2426.301, 1847.937 2396.384, 1823.953 2405.305 M 1179.202 2416.956 C 1133.998 2429.208, 1107.411 2491.662, 1136.011 2518.414 C 1172.617 2552.654, 1236.776 2521.651, 1245.098 2465.702 C 1250.157 2431.686, 1216.557 2406.831, 1179.202 2416.956 M 1193.383 2425.949 C 1164.894 2432.750, 1133.083 2494.309, 1148.156 2513.471 C 1167.860 2538.520, 1211.021 2508.026, 1223.002 2460.590 C 1229.084 2436.511, 1215.532 2420.661, 1193.383 2425.949 M 1310.500 2438.659 C 1303.225 2442.487, 1301.499 2445.229, 1298.004 2458.500 C 1287.780 2497.319, 1265.283 2543.238, 1236.515 2584 C 1209.596 2622.143, 1205.516 2630.516, 1211.117 2636.117 C 1222.240 2647.240, 1242.716 2620.951, 1287.539 2538 C 1326.040 2466.749, 1335.584 2425.458, 1310.500 2438.659 M 1547.640 2457.014 C 1523.048 2463.251, 1489.961 2487.111, 1491.182 2497.729 C 1491.757 2502.734, 1497.920 2501.552, 1509.144 2494.286 C 1571.587 2453.863, 1593.419 2481.131, 1550.217 2545.587 C 1525.907 2581.857, 1511.474 2587.518, 1508.540 2561.934 C 1506.246 2541.926, 1489.631 2548.995, 1488.221 2570.579 C 1485.928 2605.679, 1514.218 2610.434, 1544.843 2580.096 C 1609.273 2516.268, 1610.985 2440.948, 1547.640 2457.014 M 1404 2456.586 C 1373.122 2461.734, 1352.199 2481.631, 1344.149 2513.501 C 1325.358 2587.896, 1419.809 2605.868, 1449.886 2533.619 C 1468.228 2489.559, 1444.559 2449.823, 1404 2456.586 M 1401.995 2467.351 C 1370.847 2475.756, 1349.874 2553.172, 1375.237 2566.123 C 1395.168 2576.300, 1416.224 2561.324, 1426.936 2529.351 C 1441.476 2485.952, 1430.860 2459.561, 1401.995 2467.351" stroke="none" fill="#040404" fill-rule="evenodd"/></svg>