<svg width="380" height="527" viewBox="0 0 380 527" fill="none" xmlns="http://www.w3.org/2000/svg">
<path d="M331.56 527C339.866 524.196 348.156 521.062 356.432 517.211C359.374 515.834 356.211 518.137 359.017 516.824C366.475 513.277 373.178 509.161 380 504.594L380 527L331.56 527ZM190.041 505.354C194.571 476.661 221.834 446.965 241.93 419.359C251.738 406.588 262.771 394.687 274.461 383.23C274.308 382.773 273.954 382.448 274.018 381.819C275.029 380.751 275.966 379.888 276.835 379.167C296.633 371.387 316.348 363.365 335.992 355.03C340.213 353.235 344.298 351.485 348.513 349.665C351.68 348.295 348.324 348.916 350.96 347.776C360.981 343.362 370.542 339.304 380 335.103L380 488.055C363.098 500.649 343.746 510.029 323.578 516.363C319.431 517.722 321.976 517.57 321.538 517.759C320.45 518.211 318.303 518.981 315.831 519.834C311.01 521.524 304.903 523.238 303.888 523.519C295.27 525.901 296.451 524.131 293.49 524.737C289.205 525.557 284.934 526.31 280.673 527L202.214 527C200.083 525.487 197.935 523.776 195.706 521.983C191.833 519.063 190.303 512.665 190.041 505.354ZM305.307 355.682C312.276 349.807 319.289 344.013 326.333 338.247C343.946 323.867 361.84 309.793 380 295.783L380 323.643C364.644 330.647 348.05 337.673 331.6 344.667C322.773 348.4 313.945 352.088 305.307 355.682ZM61.4092 439.966C60.708 433.806 62.8 426.266 65.3926 419.387C73.0478 416.265 79.5921 413.462 94.2705 407.271C108.999 401.068 139.803 388.381 162.286 377.738C167.296 375.376 171.854 373.149 175.792 371.128C181.523 368.18 175.268 369.709 177.211 368.239C184.849 364.593 179.278 368.109 182.075 367.357C184.888 366.601 188.571 363.79 192.684 362.667C193.799 362.362 198.214 361.388 203.521 357.839C203.845 357.616 201.53 358.171 205.309 356.204C213.159 352.112 217.861 349.959 216.104 349.307C224.186 345.83 216.208 352.01 227.237 345.951C227.727 345.682 225.25 346.211 228.481 344.484C248.869 333.565 268.582 322.627 287.946 310.814C307.722 298.757 327.174 285.752 346.259 270.692C347.025 270.119 355.253 263.132 357.198 261.175C357.518 260.852 354.742 262.309 359.056 258.721C361.048 257.059 364.526 254.134 368.107 251.074C372.287 247.511 376.609 243.763 378.999 241.77C379.395 241.439 379.726 241.172 380 240.956L380 281.574C360.757 296.541 338.803 313.565 318.919 329.281C318.225 329.831 317.536 330.374 316.855 330.913C311.589 335.094 313.453 331.964 306.029 339.195C305.557 339.659 307.512 338.773 304.89 341.039C294.931 349.644 284.173 358.998 273.682 368.723C268.815 370.597 264.928 371.978 258.136 375.105C256.103 376.042 247.5 380.772 240.995 382.376C240.052 382.611 242.554 381.023 238.222 382.648C215.234 391.274 190.805 400.663 167.332 409.63C163.376 411.136 168.619 409.944 164.173 411.645C160.281 413.132 156.12 414.706 152.052 416.217C143.59 419.359 134.886 422.4 126.768 424.894C122.492 426.197 127.089 423.485 120.563 426.221C119.918 426.491 122.473 426.314 119.158 427.443C107.302 431.433 97.3062 433.861 84.4219 437.293C82.4105 437.806 78.8394 440.007 72.4687 439.97C72.083 439.958 75.6316 438.919 70.3701 439.558C67.4139 439.877 64.3118 440.088 61.4092 439.966ZM67.8594 411.447C70.4438 405.576 73.4432 399.734 76.5576 393.92C80.0409 387.427 84.0353 381.077 88.0488 374.991C90.2059 371.738 88.2301 373.484 88.5674 372.94C91.0894 368.955 95.2712 365.222 96.7715 363.68C102.372 357.802 111.442 343.817 112.371 342.413C117.696 333.985 117.383 336.666 118.65 335.404C124.767 329.416 123.966 328.558 126.437 325.45C127.525 324.091 128.602 322.775 129.746 321.41C137.33 312.351 145.843 303.582 152.801 296.224C157.742 291.013 154.224 295.695 154.848 295.098C161.709 288.539 167.791 282.566 174.687 275.728C177.571 272.878 176.619 273.093 179.725 269.953C186.622 262.994 194.607 255.649 201.96 248.505C204.117 246.413 201.128 248.302 203.668 245.832C215.976 233.91 226.24 225.529 240.158 212.529C241.575 211.207 247.052 204.157 253.301 199.032C266.265 188.444 245.724 206.823 262.977 193.315C263.986 192.531 265.041 191.704 266.141 190.839C288.324 173.205 328.056 141.427 352.137 123.387C358.967 118.239 354.819 120.706 359.465 117.25C366.283 112.189 373.131 107.191 380 102.237L380 231.319C377.713 233.856 373.892 237.938 370.213 240.265C369.365 240.798 371.172 238.527 367.682 241.454C366.182 242.71 364.661 243.98 363.123 245.259C350.109 256.11 335.735 267.552 322.055 277.522C318.793 279.898 322.137 278.412 319.869 280.046C308.284 288.384 295.891 296.436 283.655 303.928C278.357 307.174 273.079 310.324 267.922 313.347C264.257 315.489 264.589 315.831 264.092 316.142C258.222 319.772 259.994 317.865 254.352 321.271C250.019 323.889 243.966 329.679 241.554 331.108C231.15 337.291 227.034 338.842 220.327 341.257C218.477 341.914 221.817 338.537 213.768 343.492C213.469 343.671 214.77 343.685 213.769 344.229C206.34 348.252 201.254 350.445 193.06 354.604C184.403 359.007 169.575 366.246 159.19 371.045C157.188 371.974 155.33 372.825 153.73 373.548C133.133 382.825 121.282 387.194 101.63 396.665C100.999 396.966 100.523 398.662 93.0947 401.506C86.7077 403.953 76.2681 407.927 67.8594 411.447ZM-1.17364e-05 258.502C3.29945 252.83 6.67861 247.105 10.2041 241.155C11.7351 238.579 10.0755 240.07 10.5029 239.312C14.2174 232.749 17.9863 227.056 21.8281 220.948C27.754 218.509 36.3238 215.973 44.5019 212.479C45.2027 212.176 41.5736 212.926 46.5215 210.905C52.544 208.427 59.1986 205.448 65.8379 202.284C72.3109 197.927 78.7281 193.483 84.2978 189.564C89.5138 185.872 83.2034 191.094 87.7568 188.029C92.2939 184.935 94.5288 182.357 100.516 178.381C102.089 177.374 111.145 171.117 115.439 166.01C115.954 165.411 115.633 165.011 116.274 164.311C118.912 161.42 121.948 159.066 124.65 155.963C125.32 155.198 123.334 156.461 124.783 154.89C132.279 146.711 136.383 142.037 135.528 140.783C136.442 139.809 137.344 138.88 138.24 137.983C143.343 132.878 148.033 129.255 152.033 125.001C158.239 118.385 160.563 114.499 164.878 109.394C169.179 104.269 168.363 106.139 171.934 101.806C180.167 91.7273 187.532 81.6787 194.808 70.6191C195.809 69.0856 196.786 67.5984 197.812 66.0439C199.816 63.0024 201.809 60.9135 204.564 56.5947C206.424 53.6798 207.867 49.1265 208.603 47.8486C217.527 32.0285 226.96 16.8225 231.344 -1.01124e-05L380 -1.66103e-05L380 90.3652C357.435 106.851 335.072 123.708 312.793 140.75C305.052 148.835 292.394 157.356 279.97 167.938C278.402 169.281 275.998 172.989 270.342 176.342C269.996 176.543 273.147 173.255 268.204 177.229C265.546 179.37 262.848 181.561 260.183 183.745C230.976 207.66 201.387 234.293 174.72 261.031C170.364 265.405 174.366 262.412 172.833 263.976C159.978 277.139 150.495 284.918 137.886 299.225C136.879 300.368 134.473 305.004 129.854 308.747C129.558 308.987 129.918 307.749 128.508 309.251C126.093 311.823 124.479 313.813 123.104 315.618C120.632 318.865 118.837 321.583 114.495 326.406C112.954 328.121 115.312 324.325 112.158 327.943C97.974 344.352 83.5682 362.32 71.9883 381.525C69.7941 385.245 73.1528 381.072 70.875 384.932C69.9849 386.46 69.1373 387.969 68.332 389.459C63.8043 398.458 59.1014 406.399 55.5693 415.667C49.7843 417.7 43.1127 420.508 35.5039 423.992C23.9006 429.296 15.0097 433.838 0.553707 439.238C0.288524 439.338 0.116339 439.354 -3.83239e-06 439.325L-1.17364e-05 258.502ZM0.0605433 444.873C1.61594 443.699 14.6412 437.533 19.5322 435.658C24.4238 433.793 20.0807 435.923 22.2568 435.344C24.4789 434.745 26.0426 433.545 27.9316 433.325C29.832 433.098 24.962 437.649 36.6221 432.406C46.3918 427.986 42.7795 428.701 52.7148 424.532C51.7435 428.24 50.977 432.214 50.4795 436.566C50.4366 437.479 50.2592 439.418 50.4434 441.966C50.5649 443.206 50.5706 444.941 51.7861 447.2C52.9685 449.586 56.1985 451.195 58.3623 451.313C62.0095 451.765 65.6635 451.566 68.4248 451.021C69.3342 450.828 68.413 450.382 71.5947 449.944C87.1027 447.595 103.491 442.955 118.179 438.096C121.694 436.914 118.449 437.29 120.747 436.479C130.966 432.802 123.076 436.176 131.557 433.719C138.688 431.626 147.11 428.824 155.596 425.81C162.766 423.265 170.023 420.6 176.623 418.161C188.165 410.747 221.998 399.115 243.203 391.309C246.67 390.039 242.486 392.402 245.939 391.095C248.568 390.097 251.196 389.096 253.821 388.091C248.041 394.086 242.602 400.124 237.735 406.129C236.058 408.178 234.404 410.256 232.789 412.346C212.231 441.636 185.18 465.817 178.464 505.891C178.771 512.446 179.682 520.574 184.514 527L0 527L-3.58779e-06 444.921C0.0198597 444.905 0.0398828 444.889 0.0605433 444.873ZM25.0098 215.802C26.8794 212.711 23.6039 216.727 26.3672 212.23C33.9911 199.822 44.9422 185.069 52.2646 172.983C55.4727 167.691 52.9955 169.282 56.8389 163.416C65.3469 150.523 63.3276 154.966 66.8174 151.207C74.2965 143.191 79.8484 135.117 81.8232 129.609C81.0036 130.604 78.2202 134.727 77.873 134.935C74.7708 136.697 79.9195 129.376 81.8232 129.609C85.6442 124.483 90.4833 117.653 88.998 121.387C88.8582 121.707 82.0914 130.105 86.4043 125.694C88.01 124.05 95.4589 115.856 99.543 109.654C99.6341 109.516 99.7239 109.378 99.8115 109.241C103.834 102.994 102.669 101.651 111.064 91.7305C111.53 91.1875 111.655 91.9073 112.283 91.2734C117.076 86.4271 121.501 79.2591 123.589 76.4531C130.725 66.865 135.578 61.6359 142.318 53.9941C146.027 49.8113 142.137 56.2916 147.421 49.0664C148.251 47.9221 153.658 39.161 154.233 38.5137C164.576 26.6211 167.645 27.8425 175.951 17.3848C177.915 14.9429 173.274 17.9326 181.374 9.93749C183.508 7.85046 183.628 8.31951 186.566 5.27245C188.154 3.6292 189.882 1.81316 191.612 -8.37564e-06L227.434 -9.94144e-06C221.578 20.8328 208.607 39.6613 196.674 58.6973C197.47 59.9629 198.136 61.4837 199.05 62.5498C192.709 71.4024 196.045 63.9092 193.108 66.9258C192.646 67.3988 192.181 67.9639 191.708 68.6035C189.272 71.8969 186.507 77.1095 182.755 81.2256C181.191 82.9661 176.677 87.3518 173.582 91.1035C168.463 97.3378 163.272 104.094 158.848 109.646C154.419 115.198 151.268 118.222 147.197 123.335C146.591 124.098 147 124.415 146.589 125.042C144.03 128.946 138.726 133.978 136.261 136.233C135.585 136.852 135.124 137.259 134.987 137.384C124.84 146.516 128.622 144.872 126.334 147.938C115.353 162.02 108.961 164.971 94.4717 176.81C90.0562 180.313 90.526 182.038 84.9131 186.617C78.8054 191.564 72.247 196.087 65.1074 201.07C62.0027 202.611 58.8455 204.168 55.4922 205.831C52.9299 207.144 43.4118 213.016 37.4775 213.656C36.9402 213.688 34.8304 211.967 26.0723 215.779C25.8399 215.887 25.2943 216.163 24.5644 216.533C24.7121 216.29 24.8619 216.047 25.0098 215.802ZM222.001 19.4385C220.443 21.8767 221.319 16.2454 224.511 10.4668C227.568 4.58172 227.061 11.2424 222.001 19.4385ZM183.964 -8.04132e-06C178.826 5.44787 173.871 11.4465 171.607 13.8721C153.986 32.7756 142.284 45.4298 127.203 64.2754C126.817 64.7648 128.793 63.4139 126.518 66.1914C121.759 71.9953 115.209 79.7912 110.747 85.4199C107.937 88.9585 106.731 92.2742 106.462 92.6582C102.579 98.2736 98.9652 103.014 95.7988 106.827C92.3486 110.981 89.4407 114.011 87.3662 115.793C83.4087 119.192 83.1068 121.908 79.9961 125.009C79.0351 125.963 79.319 124.916 78.6797 125.598C73.8788 130.735 69.7179 138.449 67.8613 141.337C60.1485 153.262 48.6848 168.755 42.9824 177.245C37.281 185.724 40.7415 179.419 40.4795 179.687C36.4434 183.986 36.8873 185.777 36.4912 186.44C29.1432 198.801 21.9596 209.614 14.6846 221.253C9.70101 222.976 4.24119 224.102 -1.31958e-05 225.114L-2.30359e-05 0L183.964 -8.04132e-06ZM168.381 102.839C167.928 103.316 167.132 101.467 167.543 100.902C174.541 91.1504 176.111 94.6388 168.381 102.839ZM131.521 389.429C128.912 389.729 139.809 384.932 137.198 386.929C137.079 387.018 131.672 389.398 131.521 389.429ZM126.479 388.522C126.119 388.647 126.11 387.443 126.449 387.259C133.491 383.505 133.473 386.134 126.479 388.522ZM101.367 175.387C97.6771 177.758 105.029 170.863 107.912 168.844C111.54 166.363 104.371 173.503 101.367 175.387ZM65.8867 202.261C65.8705 202.268 65.8541 202.276 65.8379 202.284C65.8243 202.293 65.8105 202.302 65.7969 202.312L65.8867 202.261ZM-1.31024e-05 227.252C8.76467 225.186 10.1446 222.968 13.8437 222.597C10.3927 228.144 6.91888 233.898 3.39647 240.112C2.65018 241.442 1.89001 244.088 -1.22245e-05 247.337L-1.31024e-05 227.252Z" fill="white"/>
</svg>
