<svg width="497" height="385" viewBox="0 0 497 385" fill="none" xmlns="http://www.w3.org/2000/svg">
<line x1="7.76005" y1="257.232" x2="7.76004" y2="127.232" stroke="white" stroke-width="15.5199"/>
<line x1="38.7991" y1="257.232" x2="38.7991" y2="127.232" stroke="white" stroke-width="15.5199"/>
<line x1="69.8382" y1="257.232" x2="69.8382" y2="127.232" stroke="white" stroke-width="15.5199"/>
<line x1="100.881" y1="257.232" x2="100.881" y2="127.232" stroke="white" stroke-width="15.5199"/>
<line x1="131.92" y1="257.232" x2="131.92" y2="127.232" stroke="white" stroke-width="15.5199"/>
<line x1="162.961" y1="257.232" x2="162.961" y2="127.232" stroke="white" stroke-width="15.5199"/>
<line x1="193.998" y1="257.232" x2="193.998" y2="127.232" stroke="white" stroke-width="15.5199"/>
<line x1="225.039" y1="257.232" x2="225.039" y2="127.232" stroke="white" stroke-width="15.5199"/>
<line x1="256.078" y1="257.232" x2="256.078" y2="127.232" stroke="white" stroke-width="15.5199"/>
<line x1="287.119" y1="257.232" x2="287.119" y2="127.232" stroke="white" stroke-width="15.5199"/>
<line x1="318.158" y1="257.232" x2="318.158" y2="127.232" stroke="white" stroke-width="15.5199"/>
<line x1="349.2" y1="257.232" x2="349.199" y2="127.232" stroke="white" stroke-width="15.5199"/>
<line x1="380.239" y1="257.232" x2="380.239" y2="127.232" stroke="white" stroke-width="15.5199"/>
<line x1="411.28" y1="257.232" x2="411.28" y2="127.232" stroke="white" stroke-width="15.5199"/>
<line x1="442.319" y1="257.232" x2="442.319" y2="127.232" stroke="white" stroke-width="15.5199"/>
<line x1="473.36" y1="257.232" x2="473.36" y2="127.232" stroke="white" stroke-width="15.5199"/>
<line x1="23.2796" y1="384.464" x2="23.2796" y2="254.464" stroke="white" stroke-width="15.5199"/>
<line x1="54.3206" y1="384.464" x2="54.3206" y2="254.464" stroke="white" stroke-width="15.5199"/>
<line x1="85.3597" y1="384.464" x2="85.3596" y2="254.464" stroke="white" stroke-width="15.5199"/>
<line x1="116.401" y1="384.464" x2="116.401" y2="254.464" stroke="white" stroke-width="15.5199"/>
<line x1="147.438" y1="384.464" x2="147.438" y2="254.464" stroke="white" stroke-width="15.5199"/>
<line x1="178.481" y1="384.464" x2="178.481" y2="254.464" stroke="white" stroke-width="15.5199"/>
<line x1="209.52" y1="384.464" x2="209.52" y2="254.464" stroke="white" stroke-width="15.5199"/>
<line x1="240.559" y1="384.464" x2="240.559" y2="254.464" stroke="white" stroke-width="15.5199"/>
<line x1="271.598" y1="384.464" x2="271.598" y2="254.464" stroke="white" stroke-width="15.5199"/>
<line x1="302.639" y1="384.464" x2="302.639" y2="254.464" stroke="white" stroke-width="15.5199"/>
<line x1="333.678" y1="384.464" x2="333.678" y2="254.464" stroke="white" stroke-width="15.5199"/>
<line x1="364.719" y1="384.464" x2="364.719" y2="254.464" stroke="white" stroke-width="15.5199"/>
<line x1="395.76" y1="384.464" x2="395.76" y2="254.464" stroke="white" stroke-width="15.5199"/>
<line x1="426.799" y1="384.464" x2="426.799" y2="254.464" stroke="white" stroke-width="15.5199"/>
<line x1="457.838" y1="384.464" x2="457.838" y2="254.464" stroke="white" stroke-width="15.5199"/>
<line x1="488.877" y1="384.464" x2="488.877" y2="254.464" stroke="white" stroke-width="15.5199"/>
<line x1="23.2796" y1="130" x2="23.2796" y2="1.41978e-07" stroke="white" stroke-width="15.5199"/>
<line x1="54.3206" y1="130" x2="54.3206" y2="1.41978e-07" stroke="white" stroke-width="15.5199"/>
<line x1="85.3597" y1="130" x2="85.3596" y2="1.41978e-07" stroke="white" stroke-width="15.5199"/>
<line x1="116.401" y1="130" x2="116.401" y2="1.41978e-07" stroke="white" stroke-width="15.5199"/>
<line x1="147.438" y1="130" x2="147.438" y2="1.41978e-07" stroke="white" stroke-width="15.5199"/>
<line x1="178.481" y1="130" x2="178.481" y2="1.41978e-07" stroke="white" stroke-width="15.5199"/>
<line x1="209.52" y1="130" x2="209.52" y2="1.41978e-07" stroke="white" stroke-width="15.5199"/>
<line x1="240.559" y1="130" x2="240.559" y2="1.41978e-07" stroke="white" stroke-width="15.5199"/>
<line x1="271.598" y1="130" x2="271.598" y2="1.41978e-07" stroke="white" stroke-width="15.5199"/>
<line x1="302.639" y1="130" x2="302.639" y2="1.41978e-07" stroke="white" stroke-width="15.5199"/>
<line x1="333.678" y1="130" x2="333.678" y2="1.41978e-07" stroke="white" stroke-width="15.5199"/>
<line x1="364.719" y1="130" x2="364.719" y2="1.41978e-07" stroke="white" stroke-width="15.5199"/>
<line x1="395.76" y1="130" x2="395.76" y2="1.7799e-07" stroke="white" stroke-width="15.5199"/>
<line x1="426.799" y1="130" x2="426.799" y2="1.7799e-07" stroke="white" stroke-width="15.5199"/>
<line x1="457.838" y1="130" x2="457.838" y2="1.7799e-07" stroke="white" stroke-width="15.5199"/>
<line x1="488.877" y1="130" x2="488.877" y2="1.7799e-07" stroke="white" stroke-width="15.5199"/>
</svg>
