<svg width="284" height="284" viewBox="0 0 284 284" fill="none" xmlns="http://www.w3.org/2000/svg">
<circle cx="142" cy="142" r="142" fill="#ff8c00"/>
<path d="M187.127 146.203H197.397V229.051C197.397 242.471 190.002 247.538 181.101 247.538C171.653 247.538 166.449 243.293 166.449 231.516V146.203H176.719V226.86C176.719 236.72 179.458 238.226 182.745 238.226C186.305 238.226 187.127 235.213 187.127 230.421V146.203Z" fill="#08100F"/>
<path d="M162.302 246.169H150.799L147.239 218.096H136.968L135.188 246.169H122.864L137.927 160.034L132.038 146.203H145.595L162.302 246.169ZM140.255 168.113L137.242 215.357H146.828L144.363 195.501L141.761 168.113H140.255Z" fill="#08100F"/>
<path d="M104.837 207.689L113.19 206.593L120.859 246.169H110.451L105.248 213.303C104.7 209.88 102.372 208.1 98.1269 210.017V246.169H87.8564V146.203H100.181C111.958 146.203 118.805 150.996 118.805 163.457V186.6C118.805 197.418 112.642 202.348 104.7 206.045L104.837 207.689ZM99.2224 155.515H98.1269V206.319L100.729 205.224C106.891 202.622 108.534 199.609 108.534 194.816V166.881C108.534 157.98 106.069 155.515 99.2224 155.515Z" fill="#08100F"/>
<path d="M191.668 139.704C182.219 139.704 177.016 135.459 177.016 123.682V55.4868C177.016 42.0667 184.41 37 193.311 37C202.897 37 207.964 41.2451 207.964 53.0219V121.217C207.964 134.637 200.569 139.704 191.668 139.704ZM192.353 46.3119C188.245 46.3119 187.286 49.3245 187.286 54.1174V119.026C187.286 128.886 190.025 130.392 193.311 130.392C196.872 130.392 197.693 127.38 197.693 122.587V57.6778C197.693 47.8182 195.092 46.3119 192.353 46.3119Z" fill="#08100F"/>
<path d="M158.763 38.3701V129.435H173.552V138.336H148.492V38.3701H158.763Z" fill="#08100F"/>
<path d="M124.028 139.704C114.579 139.704 109.376 135.459 109.376 123.682V55.4868C109.376 42.0667 116.77 37 125.671 37C135.257 37 140.324 41.2451 140.324 53.0219V121.217C140.324 134.637 132.929 139.704 124.028 139.704ZM124.713 46.3119C120.605 46.3119 119.646 49.3245 119.646 54.1174V119.026C119.646 128.886 122.385 130.392 125.671 130.392C129.232 130.392 130.054 127.38 130.054 122.587V57.6778C130.054 47.8182 127.452 46.3119 124.713 46.3119Z" fill="#08100F"/>
<path d="M99.5949 50.42C99.5949 47.4074 97.4039 46.3119 91.6525 46.3119C88.0921 46.3119 87.2704 49.3245 87.2704 54.1174V119.026C87.2704 128.886 90.1461 130.392 92.8849 130.392C96.4453 130.392 97.8147 125.189 98.0886 116.425L98.4994 100.266H100.417L100.827 116.835C101.101 129.845 97.13 139.704 88.9137 139.704C81.1082 139.704 77 135.459 77 123.682V55.4868C77 42.0667 83.71 37 91.6525 37C98.7733 37 102.197 41.2451 102.197 49.7353C102.197 56.7192 101.923 66.3049 99.458 80.1358H89.0506C98.6364 59.5949 99.5949 54.2543 99.5949 50.42Z" fill="#08100F"/>
</svg>
